<svg xmlns="http://www.w3.org/2000/svg" viewBox="0 0 331.34 286.32"><defs><style>.cls-1{font-size:180.21px;font-family:Mono45Headline-Regular, Mono45-Headline;}.cls-2,.cls-3{stroke:#231f20;stroke-miterlimit:10;}.cls-3{fill:none;}</style></defs><title>Asset 2</title><g id="Layer_2" data-name="Layer 2"><g id="_2nd_Version" data-name="2nd Version"><text class="cls-1" transform="translate(64.97 209.49) scale(1.12 1)">4th</text><path class="cls-2" d="M184.29,285.06q-8.49.75-17.23.76C75.07,285.82.5,222,.5,143.16S75.07.5,167.06.5q8.73,0,17.23.76a141.91,141.91,0,0,0,0,283.8Z"/><path class="cls-3" d="M184.29,1.26C215.9,4,244.88,14.39,268.74,30.15"/><path class="cls-3" d="M184.29,285.06c31.61-2.78,60.59-13.13,84.45-28.89"/><path class="cls-3" d="M184.29,1.26C215.9,4,244.88,14.39,268.74,30.15"/><path class="cls-3" d="M184.29,285.06c31.61-2.78,60.59-13.13,84.45-28.89"/></g></g></svg>