<svg id="_2nd_Version" data-name="2nd Version" xmlns="http://www.w3.org/2000/svg" viewBox="0 0 331.34 286.32"><defs><style>.cls-1{font-size:180.21px;font-family:Mono45Headline-Regular, Mono45-Headline;}.cls-2{fill:#231f20;}.cls-2,.cls-3{stroke:#231f20;stroke-miterlimit:10;}.cls-3{fill:none;}</style></defs><title>4thcontactlogo</title><text class="cls-1" transform="translate(64.97 209.49) scale(1.12 1)">4th</text><path class="cls-2" d="M257.54,373.7q-8.49.75-17.23.76c-92,0-166.56-63.87-166.56-142.66S148.32,89.14,240.31,89.14q8.73,0,17.23.76a141.91,141.91,0,0,0,0,283.8Z" transform="translate(-73.25 -88.64)"/><path class="cls-3" d="M257.54,89.9C289.15,92.68,318.13,103,342,118.79" transform="translate(-73.25 -88.64)"/><path class="cls-3" d="M257.54,373.7c31.61-2.78,60.59-13.13,84.45-28.89" transform="translate(-73.25 -88.64)"/><path class="cls-3" d="M257.54,89.9C289.15,92.68,318.13,103,342,118.79" transform="translate(-73.25 -88.64)"/><path class="cls-3" d="M257.54,373.7c31.61-2.78,60.59-13.13,84.45-28.89" transform="translate(-73.25 -88.64)"/></svg>